<?xml version="1.0" encoding="UTF-8" standalone="no"?><!DOCTYPE svg PUBLIC "-//W3C//DTD SVG 1.1//EN" "http://www.w3.org/Graphics/SVG/1.1/DTD/svg11.dtd"><svg width="100%" height="100%" viewBox="0 0 800 800" version="1.1" xmlns="http://www.w3.org/2000/svg" xmlns:xlink="http://www.w3.org/1999/xlink" xml:space="preserve" xmlns:serif="http://www.serif.com/" style="fill-rule:evenodd;clip-rule:evenodd;stroke-linejoin:round;stroke-miterlimit:2;"><path d="M720.583,0l-641.167,0c-43.549,0.046 -79.371,35.867 -79.417,79.417l0,641.167c0.046,43.549 35.867,79.371 79.417,79.417l641.167,0c43.549,-0.046 79.371,-35.867 79.417,-79.417l0,-641.167c-0.046,-43.549 -35.867,-79.371 -79.417,-79.417Zm37.292,79.417l0,173.208l-210.5,-0l0,-210.5l173.208,0c20.415,0.113 37.179,16.877 37.292,37.292Zm-463.125,425.833l0,-210.5l210.5,0l0,210.5l-210.5,0Zm210.5,42.125l0,210.5l-210.5,0l0,-210.5l210.5,0Zm-252.625,-42.125l-210.5,0l0,-210.5l210.5,0l0,210.5Zm42.125,-252.625l0,-210.5l210.5,0l0,210.5l-210.5,0Zm252.625,42.125l210.5,0l0,210.5l-210.5,0l0,-210.5Zm-467.958,-252.625l173.208,0l0,210.5l-210.5,0l0,-173.208c0.113,-20.415 16.877,-37.179 37.292,-37.292Zm-37.292,678.458l0,-173.208l210.5,0l0,210.5l-173.208,0c-20.415,-0.113 -37.179,-16.877 -37.292,-37.292Zm678.458,37.292l-173.208,0l0,-210.5l210.5,0l0,173.208c-0.113,20.415 -16.877,37.179 -37.292,37.292Z" style="fill-rule:nonzero;"/><rect x="294.75" y="294.75" width="210.5" height="210.5" style="fill:#dabc45;"/><rect x="40.583" y="294.75" width="210.5" height="210.5" style="fill:#fff;"/><rect x="294.75" y="40.583" width="210.5" height="210.5" style="fill:#fff;"/><rect x="547.375" y="294.75" width="210.5" height="210.5" style="fill:#7bb677;"/><rect x="547.375" y="294.75" width="210.5" height="210.5" style="fill:#7bb677;"/><rect x="294.75" y="547.375" width="210.5" height="210.5" style="fill:#7bb677;"/><path d="M42.125,720.583l0,-173.208l210.5,0l0,210.5l-173.208,0c-20.415,-0.113 -37.179,-16.877 -37.292,-37.292Z" style="fill:#7bb677;fill-rule:nonzero;"/><path d="M720.583,757.875l-173.208,0l0,-210.5l210.5,0l0,173.208c-0.113,20.415 -16.877,37.179 -37.292,37.292Z" style="fill:#7bb677;fill-rule:nonzero;"/><path d="M756.048,78.311l0,173.208l-210.5,0l0,-210.5l173.208,0c20.415,0.113 37.179,16.877 37.292,37.292Z" style="fill:#fff;fill-rule:nonzero;"/><path d="M80.673,41.019l173.208,0l0,210.5l-210.5,0l0,-173.208c0.113,-20.415 16.877,-37.179 37.292,-37.292Z" style="fill:#fff;fill-rule:nonzero;"/></svg>